<svg width="85" height="120" viewBox="0 0 85 120" fill="none" xmlns="http://www.w3.org/2000/svg">
<path d="M73.3996 59.9885C80.2214 56.8952 85 50.1052 85 42.1974C85 31.3974 76.1283 22.6057 65.23 22.6057H62.3216V19.5916C62.3216 8.79167 53.4565 0 42.5582 0C31.6599 0 22.7882 8.79167 22.7882 19.5916V22.863H19.7733C8.87171 22.8663 0 31.6513 0 42.4513C0 50.3328 4.75199 57.0997 11.5405 60.2094C4.75199 63.3125 0 70.0827 0 77.9642C0 88.7642 8.87171 97.5493 19.77 97.5493H22.6518V100.415C22.6518 111.215 31.5235 120 42.4218 120C53.3201 120 62.1851 111.215 62.1851 100.415V97.3679H65.2267C76.125 97.3679 84.9967 88.5762 84.9967 77.7763C84.9967 69.8717 80.2181 63.085 73.3962 59.995L73.3996 59.9885ZM57.909 57.779H27.0877V26.8466H57.909V57.779ZM27.091 62.0429H57.9123V93.1501H27.091V62.0429ZM80.6973 42.2007C80.6973 50.6527 73.7556 57.5317 65.2267 57.5317H62.2118V26.873H65.2267C73.7556 26.873 80.6973 33.752 80.6973 42.204V42.2007ZM27.091 19.5916C27.091 11.1396 34.0326 4.26063 42.5616 4.26063C51.0905 4.26063 58.0222 11.1396 58.0222 19.5916V22.5793H27.091V19.5916ZM4.30274 42.4513C4.30274 33.9993 11.2444 27.1302 19.7733 27.1302H22.7882V57.7823H19.7733C11.2444 57.7823 4.30274 50.9033 4.30274 42.4513ZM19.77 93.2853C11.241 93.2853 4.29942 86.4162 4.29942 77.9642C4.29942 69.5122 11.241 62.6332 19.77 62.6332H22.7849V93.1501H22.6518V93.282H19.77V93.2853ZM57.8857 100.412C57.8857 108.864 50.9541 115.733 42.4251 115.733C33.8962 115.733 26.9545 108.864 26.9545 100.412V97.546H27.0877V97.414H57.8824V100.412H57.8857ZM65.23 93.1007H62.2151V62.4485H65.23C73.759 62.4485 80.7006 69.3176 80.7006 77.7697C80.7006 86.2217 73.759 93.1007 65.23 93.1007Z" fill="#242525"></path>
</svg>